<svg width="234" height="34" viewBox="0 0 234 34" fill="none" xmlns="http://www.w3.org/2000/svg">
<path d="M26.8306 7.4397C26.6872 7.28943 26.6872 7.0512 26.8306 6.90093L26.9075 6.8203C26.9949 6.72867 27.1172 6.69568 27.2361 6.71767C27.6451 6.79098 28.0786 6.6627 28.3967 6.33284C28.949 5.75375 28.9106 4.78983 28.2813 4.26572C27.8234 3.88089 27.1557 3.86623 26.6837 4.22907C26.2503 4.56259 26.0755 5.09037 26.1559 5.58516C26.1769 5.71344 26.1419 5.84172 26.058 5.93334L25.9846 6.01031C25.8413 6.16058 25.614 6.16058 25.4707 6.01031L22.8383 3.25049L20.2584 5.95533C20.1151 6.1056 20.1151 6.34383 20.2584 6.4941L20.3249 6.56374C20.4123 6.65537 20.5346 6.68835 20.657 6.66636C21.1289 6.58207 21.6358 6.76532 21.9504 7.21979C22.2965 7.71458 22.2825 8.41462 21.9155 8.89474C21.4121 9.55446 20.4962 9.59478 19.9438 9.01569C19.6292 8.68583 19.5068 8.2277 19.5768 7.79888C19.5977 7.67427 19.5628 7.54599 19.4789 7.45436L19.4124 7.38472C19.2691 7.23445 19.0419 7.23445 18.8986 7.38472L16.2907 10.1189L17.8638 11.7682C16.8395 12.153 16.1054 13.1792 16.1054 14.3851C16.1054 15.9244 17.294 17.1705 18.7622 17.1705C19.9123 17.1705 20.8912 16.4009 21.2582 15.327L22.8418 16.9873L25.4497 14.2531C25.5931 14.1029 25.5931 13.8646 25.4497 13.7144L25.3938 13.6557C25.3064 13.5641 25.184 13.5311 25.0617 13.5531C24.5898 13.6374 24.0864 13.4541 23.7682 12.9997C23.4221 12.5049 23.4361 11.8048 23.8032 11.3247C24.3066 10.665 25.2225 10.6247 25.7748 11.2038C26.0895 11.5336 26.2118 11.9918 26.1419 12.4206C26.1209 12.5452 26.1559 12.6735 26.2398 12.7651L26.2957 12.8237C26.439 12.974 26.6663 12.974 26.8096 12.8237L29.3895 10.1189L26.8376 7.44336L26.8306 7.4397Z" fill="#00A7E1"/>
<path d="M26.6733 29.7233C26.2398 29.3898 26.065 28.862 26.1454 28.3672C26.1664 28.2389 26.1314 28.1107 26.0475 28.019L25.9741 27.9421C25.8308 27.7918 25.6036 27.7918 25.4602 27.9421L22.8279 30.7019L20.248 27.997C20.1046 27.8468 20.1046 27.6085 20.248 27.4583L20.3144 27.3886C20.4018 27.297 20.5241 27.264 20.6465 27.286C21.1184 27.3703 21.6253 27.1871 21.9399 26.7326C22.286 26.2378 22.272 25.5378 21.905 25.0576C21.4016 24.3979 20.4857 24.3576 19.9333 24.9367C19.6187 25.2665 19.4964 25.7247 19.5663 26.1535C19.5873 26.2781 19.5523 26.4064 19.4684 26.498L19.402 26.5677C19.2586 26.7179 19.0314 26.7179 18.8881 26.5677L16.2802 23.8335L22.8314 16.9651L25.4392 19.6993C25.5826 19.8495 25.5826 20.0878 25.4392 20.238L25.3833 20.2967C25.2959 20.3883 25.1736 20.4213 25.0512 20.3993C24.5793 20.315 24.0724 20.4982 23.7578 20.9527C23.4117 21.4475 23.4257 22.1475 23.7927 22.6277C24.2961 23.2874 25.212 23.3277 25.7644 22.7486C26.079 22.4188 26.2013 21.9606 26.1314 21.5318C26.1104 21.4072 26.1454 21.2789 26.2293 21.1873L26.2852 21.1286C26.4286 20.9784 26.6558 20.9784 26.7991 21.1286L29.379 23.8335L26.8271 26.509C26.6838 26.6593 26.6838 26.8975 26.8271 27.0478L26.904 27.1284C26.9914 27.22 27.1137 27.253 27.2326 27.231C27.6416 27.1577 28.0751 27.286 28.3932 27.6159C28.9456 28.195 28.9071 29.1589 28.2779 29.683C27.8199 30.0678 27.1522 30.0825 26.6803 29.7196L26.6733 29.7233Z" fill="#00A7E1"/>
<path d="M5.88368 4.22541C6.31716 4.55893 6.49195 5.08671 6.41155 5.5815C6.39057 5.70977 6.42553 5.83805 6.50943 5.92968L6.58284 6.00665C6.72617 6.15692 6.9534 6.15692 7.09673 6.00665L9.72907 3.24683L12.309 5.95167C12.4523 6.10194 12.4523 6.34017 12.309 6.49044L12.2426 6.56008C12.1552 6.65171 12.0328 6.68469 11.9105 6.6627C11.4385 6.5784 10.9316 6.76166 10.617 7.21613C10.2709 7.71092 10.2849 8.41095 10.652 8.89108C11.1554 9.5508 12.0713 9.59112 12.6236 9.01203C12.9382 8.68217 13.0606 8.22403 12.9907 7.79522C12.9697 7.6706 13.0047 7.54233 13.0886 7.4507L13.155 7.38106C13.2983 7.23079 13.5255 7.23079 13.6689 7.38106L16.2767 10.1152L9.72558 16.9836L7.1177 14.2495C6.97437 14.0992 6.97437 13.861 7.1177 13.7107L7.17363 13.6521C7.26103 13.5604 7.38338 13.5274 7.50574 13.5494C7.97767 13.6337 8.48456 13.4505 8.79919 12.996C9.14527 12.5012 9.13129 11.8012 8.76423 11.321C8.26083 10.6613 7.34493 10.621 6.79259 11.2001C6.47797 11.53 6.35561 11.9881 6.42553 12.4169C6.4465 12.5415 6.41155 12.6698 6.32765 12.7614L6.27171 12.8201C6.12839 12.9703 5.90116 12.9703 5.75783 12.8201L3.17792 10.1152L5.72986 7.4397C5.87319 7.28943 5.87319 7.0512 5.72986 6.90093L5.65295 6.8203C5.56556 6.72867 5.44321 6.69569 5.32435 6.71768C4.91534 6.79098 4.48186 6.6627 4.16374 6.33284C3.6114 5.75376 3.64985 4.78983 4.2791 4.26572C4.73705 3.88089 5.40475 3.86623 5.87669 4.22907L5.88368 4.22541Z" fill="#00A7E1"/>
<path d="M16.5284 19.5015C16.5284 17.9622 15.3398 16.7161 13.8716 16.7161C12.683 16.7161 11.6797 17.5334 11.3371 18.6622L9.72553 16.9726L7.11766 19.7068C6.97433 19.8571 6.97433 20.0953 7.11766 20.2456L7.18408 20.3152C7.27147 20.4068 7.39383 20.4398 7.51268 20.4178C7.92169 20.3445 8.35518 20.4728 8.67329 20.8027C9.22563 21.3817 9.18718 22.3457 8.55793 22.8698C8.09998 23.2546 7.43228 23.2693 6.96035 22.9064C6.52686 22.5729 6.35207 22.0451 6.43248 21.5503C6.45345 21.4221 6.41849 21.2938 6.33459 21.2021L6.26817 21.1325C6.12485 20.9822 5.89762 20.9822 5.75429 21.1325L3.17438 23.8374L5.80673 26.5972C5.95005 26.7474 5.95005 26.9857 5.80673 27.1359L5.73331 27.2129C5.64592 27.3045 5.52357 27.3375 5.40121 27.3155C4.92928 27.2312 4.42238 27.4145 4.10776 27.869C3.76167 28.3638 3.77566 29.0638 4.14272 29.5439C4.64612 30.2036 5.56202 30.244 6.11436 29.6649C6.42898 29.335 6.55133 28.8769 6.48142 28.4481C6.46044 28.3234 6.4954 28.1952 6.5793 28.1035L6.65621 28.0229C6.79954 27.8726 7.02677 27.8726 7.17009 28.0229L9.72204 30.6984L12.302 27.9936C12.4453 27.8433 12.4453 27.6051 12.302 27.4548L12.246 27.3962C12.1586 27.3045 12.0363 27.2716 11.9174 27.2935C11.5084 27.3669 11.0749 27.2386 10.7568 26.9087C10.2045 26.3296 10.2429 25.3657 10.8722 24.8416C11.3301 24.4568 11.9978 24.4421 12.4697 24.8049C12.9032 25.1385 13.078 25.6662 12.9976 26.161C12.9766 26.2893 13.0116 26.4176 13.0955 26.5092L13.1514 26.5679C13.2948 26.7181 13.522 26.7181 13.6653 26.5679L16.2732 23.8337L14.6686 22.1514C15.7453 21.7959 16.5249 20.7403 16.5249 19.4942L16.5284 19.5015Z" fill="#00A7E1"/>
<path d="M27.4458 29.1809C27.7489 29.1809 27.9947 28.9232 27.9947 28.6055C27.9947 28.2877 27.7489 28.03 27.4458 28.03C27.1427 28.03 26.897 28.2877 26.897 28.6055C26.897 28.9232 27.1427 29.1809 27.4458 29.1809Z" fill="white"/>
<g style="mix-blend-mode:multiply">
<path d="M27.4458 32.9267C29.7221 32.9267 31.5674 30.9921 31.5674 28.6056C31.5674 26.2191 29.7221 24.2844 27.4458 24.2844C25.1696 24.2844 23.3243 26.2191 23.3243 28.6056C23.3243 30.9921 25.1696 32.9267 27.4458 32.9267Z" fill="#E6E7E8"/>
<path d="M27.4458 32.9267C29.7221 32.9267 31.5674 30.9921 31.5674 28.6056C31.5674 26.2191 29.7221 24.2844 27.4458 24.2844C25.1696 24.2844 23.3243 26.2191 23.3243 28.6056C23.3243 30.9921 25.1696 32.9267 27.4458 32.9267Z" stroke="#BCBEC0" stroke-width="1.58" stroke-miterlimit="10"/>
</g>
<path d="M27.4458 5.89645C27.7489 5.89645 27.9947 5.63882 27.9947 5.32103C27.9947 5.00323 27.7489 4.74561 27.4458 4.74561C27.1427 4.74561 26.897 5.00323 26.897 5.32103C26.897 5.63882 27.1427 5.89645 27.4458 5.89645Z" fill="white"/>
<g style="mix-blend-mode:multiply">
<path d="M27.4458 9.64231C29.7221 9.64231 31.5674 7.70766 31.5674 5.32115C31.5674 2.93465 29.7221 1 27.4458 1C25.1696 1 23.3243 2.93465 23.3243 5.32115C23.3243 7.70766 25.1696 9.64231 27.4458 9.64231Z" fill="#E6E7E8"/>
<path d="M27.4458 9.64231C29.7221 9.64231 31.5674 7.70766 31.5674 5.32115C31.5674 2.93465 29.7221 1 27.4458 1C25.1696 1 23.3243 2.93465 23.3243 5.32115C23.3243 7.70766 25.1696 9.64231 27.4458 9.64231Z" stroke="#BCBEC0" stroke-width="1.58" stroke-miterlimit="10"/>
</g>
<path d="M5.1216 5.89645C5.42471 5.89645 5.67044 5.63882 5.67044 5.32103C5.67044 5.00323 5.42471 4.74561 5.1216 4.74561C4.81848 4.74561 4.57275 5.00323 4.57275 5.32103C4.57275 5.63882 4.81848 5.89645 5.1216 5.89645Z" fill="white"/>
<g style="mix-blend-mode:multiply">
<path d="M5.12157 9.64231C7.39784 9.64231 9.24313 7.70766 9.24313 5.32115C9.24313 2.93465 7.39784 1 5.12157 1C2.84529 1 1 2.93465 1 5.32115C1 7.70766 2.84529 9.64231 5.12157 9.64231Z" fill="#E6E7E8"/>
<path d="M5.12157 9.64231C7.39784 9.64231 9.24313 7.70766 9.24313 5.32115C9.24313 2.93465 7.39784 1 5.12157 1C2.84529 1 1 2.93465 1 5.32115C1 7.70766 2.84529 9.64231 5.12157 9.64231Z" stroke="#BCBEC0" stroke-width="1.58" stroke-miterlimit="10"/>
</g>
<path d="M5.21248 29.2544C5.5156 29.2544 5.76132 28.9967 5.76132 28.6789C5.76132 28.3611 5.5156 28.1035 5.21248 28.1035C4.90936 28.1035 4.66364 28.3611 4.66364 28.6789C4.66364 28.9967 4.90936 29.2544 5.21248 29.2544Z" fill="white"/>
<g style="mix-blend-mode:multiply">
<path d="M5.21245 33C7.48873 33 9.33401 31.0653 9.33401 28.6788C9.33401 26.2923 7.48873 24.3577 5.21245 24.3577C2.93617 24.3577 1.09088 26.2923 1.09088 28.6788C1.09088 31.0653 2.93617 33 5.21245 33Z" fill="#E6E7E8"/>
<path d="M5.21245 33C7.48873 33 9.33401 31.0653 9.33401 28.6788C9.33401 26.2923 7.48873 24.3577 5.21245 24.3577C2.93617 24.3577 1.09088 26.2923 1.09088 28.6788C1.09088 31.0653 2.93617 33 5.21245 33Z" stroke="#BCBEC0" stroke-width="1.58" stroke-miterlimit="10"/>
</g>
<path d="M20.6744 20.3663C20.5556 20.3883 20.4332 20.3516 20.3458 20.2637L20.2689 20.183C20.1256 20.0328 20.1256 19.7945 20.2689 19.6443L22.8208 16.9687L20.2409 14.2639L20.213 14.2346C20.0696 14.0843 19.8424 14.0843 19.6991 14.2346L19.6327 14.3042C19.5453 14.3958 19.5138 14.5241 19.5348 14.6487C19.6047 15.0776 19.4823 15.532 19.1677 15.8655C18.7937 16.2577 18.2518 16.364 17.7834 16.1881C17.5771 16.1038 17.3849 15.9608 17.231 15.7593C16.864 15.2791 16.85 14.5791 17.1961 14.0843C17.5142 13.6298 18.0176 13.4466 18.4895 13.5309C18.6119 13.5529 18.7342 13.5162 18.8216 13.4283L18.8776 13.3696C19.0209 13.2193 19.0209 12.9811 18.8776 12.8308L18.8496 12.8015L16.2697 10.0967L13.6373 12.8565C13.494 13.0068 13.2668 13.0068 13.1235 12.8565L13.05 12.7795C12.9626 12.6879 12.9312 12.5596 12.9522 12.4313C13.0326 11.9366 12.8578 11.4051 12.4243 11.0753C11.9524 10.7124 11.2847 10.7271 10.8267 11.1119C10.1975 11.6397 10.159 12.5999 10.7113 13.179C11.026 13.5089 11.4629 13.6372 11.872 13.5639C11.9908 13.5419 12.1132 13.5785 12.2006 13.6665L12.2775 13.7471C12.4208 13.8974 12.4208 14.1356 12.2775 14.2859L9.72552 16.9614L12.3054 19.6663L12.3334 19.6956C12.4767 19.8458 12.704 19.8458 12.8473 19.6956L12.9137 19.6259C13.0011 19.5343 13.0326 19.406 13.0116 19.2814C12.9417 18.8526 13.064 18.3981 13.3787 18.0646C13.7527 17.6724 14.2946 17.5662 14.763 17.7421C14.9692 17.8264 15.1615 17.9693 15.3153 18.1709C15.6824 18.651 15.6964 19.3511 15.3503 19.8458C15.0322 20.3003 14.5288 20.4836 14.0568 20.3993C13.9345 20.3773 13.8121 20.4139 13.7247 20.5019L13.6688 20.5605C13.5255 20.7108 13.5255 20.949 13.6688 21.0993L13.6968 21.1286L16.2767 23.8335L18.909 21.0737C19.0524 20.9234 19.2796 20.9234 19.4229 21.0737L19.4963 21.1506C19.5837 21.2423 19.6152 21.3705 19.5942 21.4988C19.5138 21.9936 19.6886 22.525 20.1221 22.8549C20.594 23.2177 21.2617 23.2031 21.7197 22.8182C22.3489 22.2905 22.3874 21.3302 21.835 20.7511C21.5204 20.4213 21.0834 20.293 20.6744 20.3663Z" fill="#003A5D"/>
<path d="M40.9788 21.5385V12.4683H39.5674V9.30396H47.034C51.0856 9.30396 53.8832 12.422 53.8832 16.967C53.8832 21.512 51.0226 24.7028 46.9899 24.7028H39.5674V21.5385H40.9788ZM44.6145 21.3073H46.6182C48.9054 21.3073 50.2097 19.735 50.2097 16.9935C50.2097 14.2519 48.9117 12.7259 46.6182 12.7259H44.6145V21.3139V21.3073Z" fill="#00A7E1"/>
<path d="M63.385 19.048V21.5385H64.3113V24.7028H58.3442V21.5385H59.7557V12.4683H58.3442V9.30396H65.2375C68.5644 9.30396 70.6564 11.4047 70.6564 14.6813C70.6564 17.0595 69.4214 18.8828 67.5941 19.2726L69.3773 21.5319H70.8769V24.6962H67.0711L63.3913 19.0414L63.385 19.048ZM63.385 17.1586H64.5318C66.0503 17.1586 66.9766 16.3064 66.9766 14.8729C66.9766 13.5319 66.2079 12.7259 64.954 12.7259H63.3913V17.1586H63.385Z" fill="#00A7E1"/>
<path d="M90.5549 16.967C90.5549 21.3997 87.1208 25 82.8677 25C78.6145 25 75.2057 21.4195 75.2057 17.0132C75.2057 12.6069 78.6397 9.00659 82.8929 9.00659C87.146 9.00659 90.5549 12.5607 90.5549 16.967ZM86.8751 16.967C86.8751 14.6614 85.0919 12.8117 82.8929 12.8117C80.6938 12.8117 78.8666 14.6812 78.8666 16.9868C78.8666 19.2923 80.6749 21.2081 82.8929 21.2081C85.1108 21.2081 86.8751 19.2923 86.8751 16.9604V16.967Z" fill="#00A7E1"/>
<path d="M108.588 12.4683V24.7028H105.305L99.622 16.3262V21.5451H101.033V24.7094H94.5812V21.5451H95.9926V12.4749H94.5812V9.31055H99.162L104.953 17.9447V12.4749H103.541V9.31055H109.993V12.4749H108.582L108.588 12.4683Z" fill="#00A7E1"/>
<path d="M122.803 19.6227H126.439V24.7028H115.255V21.5385H116.666V12.4683H115.255V9.30396H126.439V14.3841H122.803V12.7193H120.296V15.441H123.685V18.3741H120.296V21.3073H122.803V19.6227Z" fill="#00A7E1"/>
<path d="M132.671 24.7028V21.5385H134.082V12.4683H132.671V9.30396H139.74C142.425 9.30396 144.012 10.7375 144.012 13.2082C144.012 14.7342 143.376 15.8176 142.141 16.4386C143.704 17.152 144.542 18.4666 144.542 20.2503C144.542 22.9522 142.759 24.7028 139.986 24.7028H132.677H132.671ZM137.711 15.2164H138.858C140.181 15.2164 140.667 14.8465 140.667 13.8754C140.667 12.9043 140.181 12.5608 138.858 12.5608H137.711V15.2164ZM137.711 21.3799H138.858C140.289 21.3799 140.881 20.9439 140.881 19.8341C140.881 18.7243 140.263 18.2618 139.009 18.2618H137.711V21.3799Z" fill="#003A5D"/>
<path d="M157.326 19.6227H160.962V24.7028H149.601V21.5385H151.013V12.4683H149.601V9.30396H156.054V12.4683H154.642V21.3073H157.326V19.6227Z" fill="#003A5D"/>
<path d="M180.155 16.967C180.155 21.3997 176.721 25 172.468 25C168.214 25 164.806 21.4195 164.806 17.0132C164.806 12.6069 168.24 9.00659 172.493 9.00659C176.746 9.00659 180.155 12.5607 180.155 16.967ZM176.475 16.967C176.475 14.6614 174.692 12.8117 172.493 12.8117C170.294 12.8117 168.467 14.6812 168.467 16.9868C168.467 19.2923 170.275 21.2081 172.493 21.2081C174.711 21.2081 176.475 19.2923 176.475 16.9604V16.967Z" fill="#003A5D"/>
<path d="M195.013 18.9752H198.932C197.961 22.5557 194.943 25 191.553 25C187.395 25 183.98 21.3534 183.98 16.9207C183.98 12.488 187.325 9 191.402 9C193.053 9 194.395 9.55491 195.517 10.6846V9.29728H198.491V14.9785H195.013C194.263 13.5912 192.99 12.8117 191.49 12.8117C189.31 12.8117 187.634 14.569 187.634 16.8745C187.634 19.18 189.392 21.2147 191.553 21.2147C193.028 21.2147 194.282 20.4088 195.013 18.9752Z" fill="#003A5D"/>
<path d="M209.347 17.8258V21.5451H210.759V24.7094H204.307V21.5451H205.718V12.4749H204.307V9.31055H210.759V12.4749H209.347V16.1941L212.939 12.4749H211.836V9.31055H218.351V12.4749H217.425L212.933 16.9076L217.576 21.5451H218.635V24.7094H211.83V21.5451H213.021L209.341 17.8258H209.347Z" fill="#003A5D"/>
<path d="M223.701 24.7027V19.7614H227.028C227.028 21.0562 227.601 21.7432 228.616 21.7432C229.498 21.7432 230.115 21.142 230.115 20.2898C230.115 19.4839 229.744 19.1338 228.175 18.5789C226.196 17.8654 225.509 17.469 224.671 16.5508C224.01 15.8109 223.638 14.7737 223.638 13.7102C223.638 11.1007 225.661 9 228.175 9C229.189 9 229.737 9.20479 230.55 9.92485V9.30388H233.279V13.7828H230.04C229.996 12.7919 229.466 12.1908 228.654 12.1908C227.841 12.1908 227.286 12.7457 227.286 13.5516C227.286 14.45 227.658 14.7539 229.529 15.3749C230.96 15.8373 231.71 16.2271 232.39 16.8084C233.272 17.5946 233.757 18.744 233.757 20.0851C233.757 22.8794 231.735 25 229.044 25C227.986 25 227.217 24.7027 226.536 23.9827V24.6961H223.695L223.701 24.7027Z" fill="#003A5D"/>
</svg>
